<?xml version="1.0" encoding="UTF-8"?>
<!--Generator: Apple Native CoreSVG 232.5-->
<!DOCTYPE svg
PUBLIC "-//W3C//DTD SVG 1.1//EN"
       "http://www.w3.org/Graphics/SVG/1.1/DTD/svg11.dtd">
<svg version="1.1" xmlns="http://www.w3.org/2000/svg" xmlns:xlink="http://www.w3.org/1999/xlink" width="3300" height="2200">
 <!--glyph: "", point size: 100.0, font version: "19.0d6e1", template writer version: "123"-->
 <style>.monochrome-0 {-sfsymbols-motion-group:2}
.monochrome-1 {-sfsymbols-motion-group:2}
.monochrome-2 {-sfsymbols-motion-group:1}
.monochrome-3 {-sfsymbols-motion-group:1}
.monochrome-4 {-sfsymbols-motion-group:0}
.monochrome-5 {-sfsymbols-motion-group:0}

.multicolor-0:secondaryLabelColor {-sfsymbols-motion-group:2}
.multicolor-1:labelColor {-sfsymbols-motion-group:2}
.multicolor-2:secondaryLabelColor {-sfsymbols-motion-group:1}
.multicolor-3:labelColor {-sfsymbols-motion-group:1}
.multicolor-4:secondaryLabelColor {-sfsymbols-motion-group:0}
.multicolor-5:labelColor {-sfsymbols-motion-group:0}

.hierarchical-0:secondary {-sfsymbols-motion-group:2}
.hierarchical-1:primary {-sfsymbols-motion-group:2}
.hierarchical-2:secondary {-sfsymbols-motion-group:1}
.hierarchical-3:primary {-sfsymbols-motion-group:1}
.hierarchical-4:secondary {-sfsymbols-motion-group:0}
.hierarchical-5:primary {-sfsymbols-motion-group:0}

.SFSymbolsPreviewWireframe {fill:none;opacity:1.0;stroke:black;stroke-width:0.5}
</style>
 <g id="Notes">
  <rect height="2200" id="artboard" style="fill:white;opacity:1" width="3300" x="0" y="0"/>
  <line style="fill:none;stroke:black;opacity:1;stroke-width:0.5;" x1="263" x2="3036" y1="292" y2="292"/>
  <text style="stroke:none;fill:black;font-family:sans-serif;font-size:13;font-weight:bold;" transform="matrix(1 0 0 1 263 322)">Weight/Scale Variations</text>
  <text style="stroke:none;fill:black;font-family:sans-serif;font-size:13;text-anchor:middle;" transform="matrix(1 0 0 1 559.711 322)">Ultralight</text>
  <text style="stroke:none;fill:black;font-family:sans-serif;font-size:13;text-anchor:middle;" transform="matrix(1 0 0 1 856.422 322)">Thin</text>
  <text style="stroke:none;fill:black;font-family:sans-serif;font-size:13;text-anchor:middle;" transform="matrix(1 0 0 1 1153.13 322)">Light</text>
  <text style="stroke:none;fill:black;font-family:sans-serif;font-size:13;text-anchor:middle;" transform="matrix(1 0 0 1 1449.84 322)">Regular</text>
  <text style="stroke:none;fill:black;font-family:sans-serif;font-size:13;text-anchor:middle;" transform="matrix(1 0 0 1 1746.56 322)">Medium</text>
  <text style="stroke:none;fill:black;font-family:sans-serif;font-size:13;text-anchor:middle;" transform="matrix(1 0 0 1 2043.27 322)">Semibold</text>
  <text style="stroke:none;fill:black;font-family:sans-serif;font-size:13;text-anchor:middle;" transform="matrix(1 0 0 1 2339.98 322)">Bold</text>
  <text style="stroke:none;fill:black;font-family:sans-serif;font-size:13;text-anchor:middle;" transform="matrix(1 0 0 1 2636.69 322)">Heavy</text>
  <text style="stroke:none;fill:black;font-family:sans-serif;font-size:13;text-anchor:middle;" transform="matrix(1 0 0 1 2933.4 322)">Black</text>
  <line style="fill:none;stroke:black;opacity:1;stroke-width:0.5;" x1="263" x2="3036" y1="1903" y2="1903"/>
  <g transform="matrix(0.2 0 0 0.2 263 1933)">
   <path d="m46.2402 4.15039c21.5332 0 39.4531-17.8711 39.4531-39.4043s-17.9688-39.4043-39.502-39.4043c-21.4844 0-39.3555 17.8711-39.3555 39.4043s17.9199 39.4043 39.4043 39.4043Zm0-7.42188c-17.7246 0-31.8848-14.209-31.8848-31.9824s14.1113-31.9824 31.8359-31.9824c17.7734 0 32.0312 14.209 32.0312 31.9824s-14.209 31.9824-31.9824 31.9824Zm-17.9688-31.9824c0 2.14844 1.51367 3.61328 3.75977 3.61328h10.498v10.5957c0 2.19727 1.46484 3.71094 3.61328 3.71094 2.24609 0 3.71094-1.51367 3.71094-3.71094v-10.5957h10.5957c2.19727 0 3.71094-1.46484 3.71094-3.61328 0-2.19727-1.51367-3.71094-3.71094-3.71094h-10.5957v-10.5469c0-2.24609-1.46484-3.75977-3.71094-3.75977-2.14844 0-3.61328 1.51367-3.61328 3.75977v10.5469h-10.498c-2.24609 0-3.75977 1.51367-3.75977 3.71094Z"/>
  </g>
  <g transform="matrix(0.2 0 0 0.2 281.506 1933)">
   <path d="m58.5449 14.5508c27.2461 0 49.8047-22.6074 49.8047-49.8047 0-27.2461-22.6074-49.8047-49.8535-49.8047-27.1973 0-49.7559 22.5586-49.7559 49.8047 0 27.1973 22.6074 49.8047 49.8047 49.8047Zm0-8.30078c-23.0469 0-41.4551-18.457-41.4551-41.5039s18.3594-41.5039 41.4062-41.5039 41.5527 18.457 41.5527 41.5039-18.457 41.5039-41.5039 41.5039Zm-22.6562-41.5039c0 2.39258 1.66016 4.00391 4.15039 4.00391h14.3555v14.4043c0 2.44141 1.66016 4.15039 4.05273 4.15039 2.44141 0 4.15039-1.66016 4.15039-4.15039v-14.4043h14.4043c2.44141 0 4.15039-1.61133 4.15039-4.00391 0-2.44141-1.70898-4.15039-4.15039-4.15039h-14.4043v-14.3555c0-2.49023-1.70898-4.19922-4.15039-4.19922-2.39258 0-4.05273 1.70898-4.05273 4.19922v14.3555h-14.3555c-2.49023 0-4.15039 1.70898-4.15039 4.15039Z"/>
  </g>
  <g transform="matrix(0.2 0 0 0.2 304.924 1933)">
   <path d="m74.8535 28.3203c34.8145 0 63.623-28.8086 63.623-63.5742 0-34.8145-28.8574-63.623-63.6719-63.623-34.7656 0-63.5254 28.8086-63.5254 63.623 0 34.7656 28.8086 63.5742 63.5742 63.5742Zm0-9.08203c-30.1758 0-54.4434-24.3164-54.4434-54.4922 0-30.2246 24.2188-54.4922 54.3945-54.4922 30.2246 0 54.541 24.2676 54.541 54.4922 0 30.1758-24.2676 54.4922-54.4922 54.4922Zm-28.8574-54.4922c0 2.58789 1.85547 4.39453 4.58984 4.39453h19.7266v19.7754c0 2.68555 1.85547 4.58984 4.44336 4.58984 2.68555 0 4.54102-1.85547 4.54102-4.58984v-19.7754h19.7754c2.68555 0 4.58984-1.80664 4.58984-4.39453 0-2.73438-1.85547-4.58984-4.58984-4.58984h-19.7754v-19.7266c0-2.73438-1.85547-4.63867-4.54102-4.63867-2.58789 0-4.44336 1.9043-4.44336 4.63867v19.7266h-19.7266c-2.73438 0-4.58984 1.85547-4.58984 4.58984Z"/>
  </g>
  <text style="stroke:none;fill:black;font-family:sans-serif;font-size:13;font-weight:bold;" transform="matrix(1 0 0 1 263 1953)">Design Variations</text>
  <text style="stroke:none;fill:black;font-family:sans-serif;font-size:13;" transform="matrix(1 0 0 1 263 1971)">Symbols are supported in up to nine weights and three scales.</text>
  <text style="stroke:none;fill:black;font-family:sans-serif;font-size:13;" transform="matrix(1 0 0 1 263 1989)">For optimal layout with text and other symbols, vertically align</text>
  <text style="stroke:none;fill:black;font-family:sans-serif;font-size:13;" transform="matrix(1 0 0 1 263 2007)">symbols with the adjacent text.</text>
  <line style="fill:none;stroke:#00AEEF;stroke-width:0.5;opacity:1.0;" x1="776" x2="776" y1="1919" y2="1933"/>
  <g transform="matrix(0.2 0 0 0.2 776 1933)">
   <path d="m16.5527 0.78125c2.58789 0 3.85742-0.976562 4.78516-3.71094l6.29883-17.2363h28.8086l6.29883 17.2363c0.927734 2.73438 2.19727 3.71094 4.73633 3.71094 2.58789 0 4.24805-1.5625 4.24805-4.00391 0-0.830078-0.146484-1.61133-0.537109-2.63672l-22.9004-60.9863c-1.12305-2.97852-3.125-4.49219-6.25-4.49219-3.02734 0-5.07812 1.46484-6.15234 4.44336l-22.9004 61.084c-0.390625 1.02539-0.537109 1.80664-0.537109 2.63672 0 2.44141 1.5625 3.95508 4.10156 3.95508Zm13.4766-28.3691 11.8652-32.8613h0.244141l11.8652 32.8613Z"/>
  </g>
  <line style="fill:none;stroke:#00AEEF;stroke-width:0.5;opacity:1.0;" x1="792.836" x2="792.836" y1="1919" y2="1933"/>
  <text style="stroke:none;fill:black;font-family:sans-serif;font-size:13;font-weight:bold;" transform="matrix(1 0 0 1 776 1953)">Margins</text>
  <text style="stroke:none;fill:black;font-family:sans-serif;font-size:13;" transform="matrix(1 0 0 1 776 1971)">Leading and trailing margins on the left and right side of each symbol</text>
  <text style="stroke:none;fill:black;font-family:sans-serif;font-size:13;" transform="matrix(1 0 0 1 776 1989)">can be adjusted by modifying the x-location of the margin guidelines.</text>
  <text style="stroke:none;fill:black;font-family:sans-serif;font-size:13;" transform="matrix(1 0 0 1 776 2007)">Modifications are automatically applied proportionally to all</text>
  <text style="stroke:none;fill:black;font-family:sans-serif;font-size:13;" transform="matrix(1 0 0 1 776 2025)">scales and weights.</text>
  <g transform="matrix(0.2 0 0 0.2 1289 1933)">
   <path d="m14.209 9.32617 8.49609 8.54492c4.29688 4.3457 9.22852 4.05273 13.8672-1.07422l53.4668-58.9355-4.83398-4.88281-53.0762 58.3984c-1.75781 2.00195-3.41797 2.49023-5.76172 0.146484l-5.85938-5.81055c-2.34375-2.29492-1.80664-4.00391 0.195312-5.81055l57.373-54.0039-4.88281-4.83398-57.959 54.4434c-4.93164 4.58984-5.32227 9.47266-1.02539 13.8184Zm32.0801-90.9668c-2.09961 2.05078-2.24609 4.93164-1.07422 6.88477 1.17188 1.80664 3.4668 2.97852 6.68945 2.14844 7.32422-1.70898 14.9414-2.00195 22.0703 2.68555l-2.92969 7.27539c-1.70898 4.15039-0.830078 7.08008 1.85547 9.81445l11.4746 11.5723c2.44141 2.44141 4.49219 2.53906 7.32422 2.05078l5.32227-0.976562 3.32031 3.36914-0.195312 2.7832c-0.195312 2.49023 0.439453 4.39453 2.88086 6.78711l3.80859 3.71094c2.39258 2.39258 5.46875 2.53906 7.8125 0.195312l14.5508-14.5996c2.34375-2.34375 2.24609-5.32227-0.146484-7.71484l-3.85742-3.80859c-2.39258-2.39258-4.24805-3.17383-6.64062-2.97852l-2.88086 0.244141-3.22266-3.17383 1.2207-5.61523c0.634766-2.83203-0.146484-5.0293-3.07617-7.95898l-10.9863-10.9375c-16.6992-16.6016-38.8672-16.2109-53.3203-1.75781Zm7.4707 1.85547c12.1582-8.88672 28.6133-7.37305 39.7461 3.75977l12.1582 12.0605c1.17188 1.17188 1.36719 2.09961 1.02539 3.80859l-1.61133 7.42188 7.51953 7.42188 4.93164-0.292969c1.26953-0.0488281 1.66016 0.0488281 2.63672 1.02539l2.88086 2.88086-12.207 12.207-2.88086-2.88086c-0.976562-0.976562-1.12305-1.36719-1.07422-2.68555l0.341797-4.88281-7.4707-7.42188-7.61719 1.26953c-1.61133 0.341797-2.34375 0.195312-3.56445-0.976562l-10.0098-10.0098c-1.26953-1.17188-1.41602-2.00195-0.634766-3.85742l4.39453-10.4492c-7.8125-7.27539-17.9688-10.4004-28.125-7.42188-0.78125 0.195312-1.07422-0.439453-0.439453-0.976562Z"/>
  </g>
  <text style="stroke:none;fill:black;font-family:sans-serif;font-size:13;font-weight:bold;" transform="matrix(1 0 0 1 1289 1953)">Exporting</text>
  <text style="stroke:none;fill:black;font-family:sans-serif;font-size:13;" transform="matrix(1 0 0 1 1289 1971)">Symbols should be outlined when exporting to ensure the</text>
  <text style="stroke:none;fill:black;font-family:sans-serif;font-size:13;" transform="matrix(1 0 0 1 1289 1989)">design is preserved when submitting to Xcode.</text>
  <text id="template-version" style="stroke:none;fill:black;font-family:sans-serif;font-size:13;text-anchor:end;" transform="matrix(1 0 0 1 3036 1933)">Template v.5.0</text>
  <text style="stroke:none;fill:black;font-family:sans-serif;font-size:13;text-anchor:end;" transform="matrix(1 0 0 1 3036 1951)">Requires Xcode 15 or greater</text>
  <text id="descriptive-name" style="stroke:none;fill:black;font-family:sans-serif;font-size:13;text-anchor:end;" transform="matrix(1 0 0 1 3036 1969)">Generated from block.quote</text>
  <text style="stroke:none;fill:black;font-family:sans-serif;font-size:13;text-anchor:end;" transform="matrix(1 0 0 1 3036 1987)">Typeset at 100.0 points</text>
  <text style="stroke:none;fill:black;font-family:sans-serif;font-size:13;" transform="matrix(1 0 0 1 263 726)">Small</text>
  <text style="stroke:none;fill:black;font-family:sans-serif;font-size:13;" transform="matrix(1 0 0 1 263 1156)">Medium</text>
  <text style="stroke:none;fill:black;font-family:sans-serif;font-size:13;" transform="matrix(1 0 0 1 263 1586)">Large</text>
 </g>
 <g id="Guides">
  <g id="H-reference" style="fill:#27AAE1;stroke:none;" transform="matrix(1 0 0 1 339 696)">
   <path d="M0.993654 0L3.63775 0L29.3281-67.1323L30.0303-67.1323L30.0303-70.459L28.1226-70.459ZM11.6885-24.4799L46.9815-24.4799L46.2315-26.7285L12.4385-26.7285ZM55.1196 0L57.7637 0L30.6382-70.459L29.4326-70.459L29.4326-67.1323Z"/>
  </g>
  <line id="Baseline-S" style="fill:none;stroke:#27AAE1;opacity:1;stroke-width:0.5;" x1="263" x2="3036" y1="696" y2="696"/>
  <line id="Capline-S" style="fill:none;stroke:#27AAE1;opacity:1;stroke-width:0.5;" x1="263" x2="3036" y1="625.541" y2="625.541"/>
  <g id="H-reference" style="fill:#27AAE1;stroke:none;" transform="matrix(1 0 0 1 339 1126)">
   <path d="M0.993654 0L3.63775 0L29.3281-67.1323L30.0303-67.1323L30.0303-70.459L28.1226-70.459ZM11.6885-24.4799L46.9815-24.4799L46.2315-26.7285L12.4385-26.7285ZM55.1196 0L57.7637 0L30.6382-70.459L29.4326-70.459L29.4326-67.1323Z"/>
  </g>
  <line id="Baseline-M" style="fill:none;stroke:#27AAE1;opacity:1;stroke-width:0.5;" x1="263" x2="3036" y1="1126" y2="1126"/>
  <line id="Capline-M" style="fill:none;stroke:#27AAE1;opacity:1;stroke-width:0.5;" x1="263" x2="3036" y1="1055.54" y2="1055.54"/>
  <g id="H-reference" style="fill:#27AAE1;stroke:none;" transform="matrix(1 0 0 1 339 1556)">
   <path d="M0.993654 0L3.63775 0L29.3281-67.1323L30.0303-67.1323L30.0303-70.459L28.1226-70.459ZM11.6885-24.4799L46.9815-24.4799L46.2315-26.7285L12.4385-26.7285ZM55.1196 0L57.7637 0L30.6382-70.459L29.4326-70.459L29.4326-67.1323Z"/>
  </g>
  <line id="Baseline-L" style="fill:none;stroke:#27AAE1;opacity:1;stroke-width:0.5;" x1="263" x2="3036" y1="1556" y2="1556"/>
  <line id="Capline-L" style="fill:none;stroke:#27AAE1;opacity:1;stroke-width:0.5;" x1="263" x2="3036" y1="1485.54" y2="1485.54"/>
  <line id="left-margin-Ultralight-S" style="fill:none;stroke:#00AEEF;stroke-width:0.5;opacity:1.0;" x1="513.207" x2="513.207" y1="600.785" y2="720.121"/>
  <line id="right-margin-Ultralight-S" style="fill:none;stroke:#00AEEF;stroke-width:0.5;opacity:1.0;" x1="606.215" x2="606.215" y1="600.785" y2="720.121"/>
  <line id="left-margin-Regular-S" style="fill:none;stroke:#00AEEF;stroke-width:0.5;opacity:1.0;" x1="1401.14" x2="1401.14" y1="600.785" y2="720.121"/>
  <line id="right-margin-Regular-S" style="fill:none;stroke:#00AEEF;stroke-width:0.5;opacity:1.0;" x1="1498.55" x2="1498.55" y1="600.785" y2="720.121"/>
  <line id="left-margin-Black-S" style="fill:none;stroke:#00AEEF;stroke-width:0.5;opacity:1.0;" x1="2879.69" x2="2879.69" y1="600.785" y2="720.121"/>
  <line id="right-margin-Black-S" style="fill:none;stroke:#00AEEF;stroke-width:0.5;opacity:1.0;" x1="2987.11" x2="2987.11" y1="600.785" y2="720.121"/>
 </g>
 <g id="Symbols">
  <g id="Black-S" transform="matrix(1 0 0 1 2879.69 696)">
   <path class="monochrome-0 multicolor-0:secondaryLabelColor hierarchical-0:secondary SFSymbolsPreviewWireframe" d="M42.9688-3.56445L91.3086-3.56445C94.8242-3.56445 97.6562-6.34766 97.6562-9.91211C97.6562-13.4277 94.873-16.2598 91.3086-16.2598L42.9688-16.2598C39.4531-16.2598 36.6211-13.4766 36.6211-9.91211C36.6211-6.39648 39.4043-3.56445 42.9688-3.56445Z"/>
   <path class="monochrome-1 multicolor-1:labelColor hierarchical-1:primary SFSymbolsPreviewWireframe" d="M11.8827-57.2183L17.4233-60.5776L11.8391-63.9804C7.21473-66.7289 11.272-73.8836 16.2454-70.6989L25.756-64.7657C28.7662-62.8898 28.8098-58.3527 25.756-56.4331L16.2454-50.4126C11.2284-47.2715 7.21473-54.3826 11.8827-57.2183Z"/>
   <path class="monochrome-2 multicolor-2:secondaryLabelColor hierarchical-2:secondary SFSymbolsPreviewWireframe" d="M42.9688-28.8574L91.3086-28.8574C94.8242-28.8574 97.6562-31.6406 97.6562-35.2051C97.6562-38.7207 94.873-41.5527 91.3086-41.5527L42.9688-41.5527C39.4531-41.5527 36.6211-38.7695 36.6211-35.2051C36.6211-31.6895 39.4043-28.8574 42.9688-28.8574Z"/>
   <path class="monochrome-3 multicolor-3:labelColor hierarchical-3:primary SFSymbolsPreviewWireframe" d="M11.8827-31.8183L17.4233-35.1776L11.8391-38.5804C7.21473-41.3289 11.272-48.4836 16.2454-45.2989L25.756-39.3657C28.7662-37.4898 28.8098-32.9527 25.756-31.0331L16.2454-25.0126C11.2284-21.8715 7.21473-28.9826 11.8827-31.8183Z"/>
   <path class="monochrome-4 multicolor-4:secondaryLabelColor hierarchical-4:secondary SFSymbolsPreviewWireframe" d="M42.9688-54.1504L91.3086-54.1504C94.8242-54.1504 97.6562-56.9336 97.6562-60.498C97.6562-64.0137 94.873-66.8457 91.3086-66.8457L42.9688-66.8457C39.4531-66.8457 36.6211-64.0625 36.6211-60.498C36.6211-56.9824 39.4043-54.1504 42.9688-54.1504Z"/>
   <path class="monochrome-5 multicolor-5:labelColor hierarchical-5:primary SFSymbolsPreviewWireframe" d="M11.8827-6.46832L17.4233-9.82758L11.8391-13.2304C7.21473-15.9789 11.272-23.1336 16.2454-19.9489L25.756-14.0157C28.7662-12.1398 28.8098-7.60267 25.756-5.68305L16.2454 0.337406C11.2284 3.47848 7.21473-3.63263 11.8827-6.46832Z"/>
  </g>
  <g id="Regular-S" transform="matrix(1 0 0 1 1401.14 696)">
   <path class="monochrome-0 multicolor-0:secondaryLabelColor hierarchical-0:secondary SFSymbolsPreviewWireframe" d="M35.4004-8.39844L84.1309-8.39844C86.084-8.39844 87.6465-9.96094 87.6465-11.9141C87.6465-13.8672 86.084-15.4297 84.1309-15.4297L35.4004-15.4297C33.4473-15.4297 31.8848-13.8672 31.8848-11.9141C31.8848-9.96094 33.4473-8.39844 35.4004-8.39844Z"/>
   <path class="monochrome-1 multicolor-1:labelColor hierarchical-1:primary SFSymbolsPreviewWireframe" d="M11.0091-54.9902L16.775-58.4744L11.0091-61.9586C8.81991-63.2844 10.6699-66.6452 13.1058-65.1036L20.2283-60.6636C21.7392-59.6769 21.8009-57.3027 20.2283-56.316L13.1058-51.8143C10.6699-50.2727 8.81991-53.6643 11.0091-54.9902Z"/>
   <path class="monochrome-2 multicolor-2:secondaryLabelColor hierarchical-2:secondary SFSymbolsPreviewWireframe" d="M35.4004-31.6895L84.1309-31.6895C86.084-31.6895 87.6465-33.252 87.6465-35.2051C87.6465-37.1582 86.084-38.7207 84.1309-38.7207L35.4004-38.7207C33.4473-38.7207 31.8848-37.1582 31.8848-35.2051C31.8848-33.252 33.4473-31.6895 35.4004-31.6895Z"/>
   <path class="monochrome-3 multicolor-3:labelColor hierarchical-3:primary SFSymbolsPreviewWireframe" d="M11.0091-31.7402L16.775-35.2244L11.0091-38.7086C8.81991-40.0344 10.6699-43.3952 13.1058-41.8536L20.2283-37.4136C21.7392-36.4269 21.8009-34.0527 20.2283-33.066L13.1058-28.5643C10.6699-27.0227 8.81991-30.4143 11.0091-31.7402Z"/>
   <path class="monochrome-4 multicolor-4:secondaryLabelColor hierarchical-4:secondary SFSymbolsPreviewWireframe" d="M35.4004-54.9805L84.1309-54.9805C86.084-54.9805 87.6465-56.543 87.6465-58.4961C87.6465-60.4492 86.084-62.0117 84.1309-62.0117L35.4004-62.0117C33.4473-62.0117 31.8848-60.4492 31.8848-58.4961C31.8848-56.543 33.4473-54.9805 35.4004-54.9805Z"/>
   <path class="monochrome-5 multicolor-5:labelColor hierarchical-5:primary SFSymbolsPreviewWireframe" d="M11.0091-8.49018L16.775-11.9744L11.0091-15.4586C8.81991-16.7844 10.6699-20.1452 13.1058-18.6036L20.2283-14.1636C21.7392-13.1769 21.8009-10.8027 20.2283-9.81601L13.1058-5.31432C10.6699-3.77265 8.81991-7.16434 11.0091-8.49018Z"/>
  </g>
  <g id="Ultralight-S" transform="matrix(1 0 0 1 513.207 696)">
   <path class="monochrome-0 multicolor-0:secondaryLabelColor hierarchical-0:secondary SFSymbolsPreviewWireframe" d="M29.1338-11.7134L82.1328-11.7134C82.7691-11.7134 83.2417-12.1406 83.2417-12.7768C83.2417-13.4585 82.7691-13.8858 82.1328-13.8858L29.1338-13.8858C28.4976-13.8858 28.0249-13.4585 28.0249-12.7768C28.0249-12.1406 28.4976-11.7134 29.1338-11.7134Z"/>
   <path class="monochrome-1 multicolor-1:labelColor hierarchical-1:primary SFSymbolsPreviewWireframe" d="M10.1851-53.7076L16.6738-57.629L10.1851-61.5238C9.29869-62.0884 10.0833-63.1838 10.8795-62.685L17.6689-58.4357C18.2454-58.0792 18.3026-57.1808 17.6689-56.8243L10.8795-52.571C10.0833-52.0722 9.35184-53.2228 10.1851-53.7076Z"/>
   <path class="monochrome-2 multicolor-2:secondaryLabelColor hierarchical-2:secondary SFSymbolsPreviewWireframe" d="M29.1338-34.0962L82.1328-34.0962C82.7691-34.0962 83.2417-34.5688 83.2417-35.2051C83.2417-35.8413 82.7691-36.314 82.1328-36.314L29.1338-36.314C28.4976-36.314 28.0249-35.8413 28.0249-35.2051C28.0249-34.5688 28.4976-34.0962 29.1338-34.0962Z"/>
   <path class="monochrome-3 multicolor-3:labelColor hierarchical-3:primary SFSymbolsPreviewWireframe" d="M10.1851-31.1958L16.6738-35.1172L10.1851-39.012C9.29869-39.5766 10.0833-40.672 10.8795-40.1731L17.6689-35.9238C18.2454-35.5674 18.3026-34.6689 17.6689-34.3124L10.8795-30.0592C10.0833-29.5603 9.35184-30.711 10.1851-31.1958Z"/>
   <path class="monochrome-4 multicolor-4:secondaryLabelColor hierarchical-4:secondary SFSymbolsPreviewWireframe" d="M29.1338-56.5244L82.1328-56.5244C82.7691-56.5244 83.2417-56.9517 83.2417-57.6333C83.2417-58.2695 82.7691-58.6968 82.1328-58.6968L29.1338-58.6968C28.4976-58.6968 28.0249-58.2695 28.0249-57.6333C28.0249-56.9517 28.4976-56.5244 29.1338-56.5244Z"/>
   <path class="monochrome-5 multicolor-5:labelColor hierarchical-5:primary SFSymbolsPreviewWireframe" d="M10.1851-8.89575L16.6738-12.8172L10.1851-16.712C9.29869-17.2766 10.0833-18.372 10.8795-17.8731L17.6689-13.6238C18.2454-13.2674 18.3026-12.3689 17.6689-12.0124L10.8795-7.75919C10.0833-7.26034 9.35184-8.41095 10.1851-8.89575Z"/>
  </g>
 </g>
</svg>
