<?xml version="1.0" encoding="UTF-8"?>
<svg width="120px" height="12px" viewBox="0 0 120 12" version="1.1" xmlns="http://www.w3.org/2000/svg" xmlns:xlink="http://www.w3.org/1999/xlink">
    <path fill="rgba(255, 0, 128, 0.83)" d="M111.437366,11.5 L119,11.5 L119,8.93866944 L114.676313,8.93866944 L114.676313,0.5 L111.437366,0.5 L111.437366,11.5 Z M106.846313,0.5 L110.444293,11.5 L107.037289,11.5 L106.464362,9.31219681 L103.164304,9.31219681 L102.591377,11.5 L99.1843724,11.5 L102.782353,0.5 L106.846313,0.5 Z M100.06286,0.5 L100.06286,3.06133056 L97.1600311,3.06133056 L97.1600311,11.5 L93.921085,11.5 L93.921085,3.06133056 L91.018256,3.06133056 L91.018256,0.5 L100.06286,0.5 Z M104.844889,3.12231462 L104.783777,3.12231462 L103.760148,7.03291753 L105.868518,7.03291753 L104.844889,3.12231462 Z M80.0257008,11.5 L83.2646469,11.5 L83.2646469,5.78274428 L83.31812,5.78274428 L87.2445782,11.5 L89.9105975,11.5 L89.9105975,0.5 L86.6716515,0.5 L86.6716515,6.12577963 L86.6181783,6.12577963 L82.7222762,0.5 L80.0257008,0.5 L80.0257008,11.5 Z M70.7366479,11.5 L78.5131741,11.5 L78.5131741,8.93866944 L73.975594,8.93866944 L73.975594,7.19300069 L78.2305302,7.19300069 L78.2305302,4.81462231 L73.975594,4.81462231 L73.975594,3.06133056 L78.5131741,3.06133056 L78.5131741,0.5 L70.7366479,0.5 L70.7366479,11.5 Z M56.7954295,11.5 L59.6218683,11.5 L59.6218683,5.12716563 L59.6753415,5.12716563 L62.1351071,11.5 L63.8691655,11.5 L66.3289312,5.12716563 L66.3824044,5.12716563 L66.3824044,11.5 L69.2088431,11.5 L69.2088431,0.5 L65.4657215,0.5 L63.0288729,7.04816355 L62.9753998,7.04816355 L60.5385512,0.5 L56.7954295,0.5 L56.7954295,11.5 Z M52.0286787,11.5 L55.2676248,11.5 L55.2676248,0.5 L52.0286787,0.5 L52.0286787,11.5 Z M41.3722406,11.5 L44.6111866,11.5 L44.6111866,7.88669439 L45.6730109,7.88669439 L47.4147084,11.5 L51.0356056,11.5 L48.9425131,7.40644491 C50.0119764,6.88808039 50.7147666,5.65315315 50.7147666,4.28101178 L50.7147666,4.26576577 C50.7147666,1.82640333 49.1716838,0.5 46.337606,0.5 L41.3722406,0.5 L41.3722406,11.5 Z M44.6111866,5.60741511 L44.6111866,2.88600139 L45.9632938,2.88600139 C46.8188645,2.88600139 47.4147084,3.44248094 47.4147084,4.24289674 L47.4147084,4.25814276 C47.4147084,5.06618157 46.8341426,5.60741511 45.9632938,5.60741511 L44.6111866,5.60741511 Z M32.0831877,11.5 L39.8597139,11.5 L39.8597139,8.93866944 L35.3221337,8.93866944 L35.3221337,7.19300069 L39.57707,7.19300069 L39.57707,4.81462231 L35.3221337,4.81462231 L35.3221337,3.06133056 L39.8597139,3.06133056 L39.8597139,0.5 L32.0831877,0.5 L32.0831877,11.5 Z M21.8010617,11.5 L25.0400078,11.5 L25.0400078,8.496535 L26.728232,8.496535 C29.310222,8.496535 30.9373341,6.96431046 30.9373341,4.52494802 L30.9373341,4.50970201 C30.9373341,2.07033957 29.310222,0.5 26.728232,0.5 L21.8010617,0.5 L21.8010617,11.5 Z M25.9566906,2.93173943 C27.0261539,2.93173943 27.6678319,3.45772696 27.6678319,4.50970201 L27.6678319,4.52494802 C27.6678319,5.57692308 27.0261539,6.11053361 25.9566906,6.11053361 L25.0400078,6.11053361 L25.0400078,2.93173943 L25.9566906,2.93173943 Z M9.83835049,11.5 L13.2606331,11.5 L15.147472,8.18399168 L15.2085842,8.18399168 L17.1107011,11.5 L20.7163203,11.5 L17.3169547,6.0038115 L17.3169547,5.94282744 L20.7315984,0.5 L17.1412572,0.5 L15.3995598,4.00658351 L15.3384476,4.00658351 L13.6043892,0.5 L9.83071147,0.5 L13.0849356,5.92758143 L13.0849356,5.98856549 L9.83835049,11.5 Z M1,11.5 L8.77652619,11.5 L8.77652619,8.93866944 L4.23894607,8.93866944 L4.23894607,7.19300069 L8.49388231,7.19300069 L8.49388231,4.81462231 L4.23894607,4.81462231 L4.23894607,3.06133056 L8.77652619,3.06133056 L8.77652619,0.5 L1,0.5 L1,11.5 Z"></path>
</svg>