<?xml version="1.0" encoding="UTF-8"?>
<svg width="180px" height="22px" viewBox="0 0 180 22" version="1.1" xmlns="http://www.w3.org/2000/svg" xmlns:xlink="http://www.w3.org/1999/xlink">
    <path fill="rgba(255, 0, 128, 0.83)" d="M165.34832,19.5 L176.5,19.5 L176.5,15.54158 L170.124393,15.54158 L170.124393,2.5 L165.34832,2.5 L165.34832,19.5 Z M158.578462,2.5 L163.883958,19.5 L158.86007,19.5 L158.015246,16.1188496 L153.149058,16.1188496 L152.304234,19.5 L147.280346,19.5 L152.585842,2.5 L158.578462,2.5 Z M148.575743,2.5 L148.575743,6.45841996 L144.2953,6.45841996 L144.2953,19.5 L139.519227,19.5 L139.519227,6.45841996 L135.238784,6.45841996 L135.238784,2.5 L148.575743,2.5 Z M155.627209,6.55266805 L155.537095,6.55266805 L154.027675,12.5963271 L157.136628,12.5963271 L155.627209,6.55266805 Z M119.029423,19.5 L123.805496,19.5 L123.805496,10.6642412 L123.884346,10.6642412 L129.674209,19.5 L133.605457,19.5 L133.605457,2.5 L128.829384,2.5 L128.829384,11.1943867 L128.750534,11.1943867 L123.005729,2.5 L119.029423,2.5 L119.029423,19.5 Z M105.332006,19.5 L116.799087,19.5 L116.799087,15.54158 L110.108079,15.54158 L110.108079,12.8437283 L116.382307,12.8437283 L116.382307,9.16805267 L110.108079,9.16805267 L110.108079,6.45841996 L116.799087,6.45841996 L116.799087,2.5 L105.332006,2.5 L105.332006,19.5 Z M84.7746164,19.5 L88.942416,19.5 L88.942416,9.65107415 L89.0212663,9.65107415 L92.6483783,19.5 L95.2053797,19.5 L98.8324917,9.65107415 L98.911342,9.65107415 L98.911342,19.5 L103.079142,19.5 L103.079142,2.5 L97.5596232,2.5 L93.9663041,12.6198891 L93.8874539,12.6198891 L90.2941348,2.5 L84.7746164,2.5 L84.7746164,19.5 Z M77.7456788,19.5 L82.5217518,19.5 L82.5217518,2.5 L77.7456788,2.5 L77.7456788,19.5 Z M62.031948,19.5 L66.808021,19.5 L66.808021,13.9158004 L68.3737619,13.9158004 L70.9420276,19.5 L76.2813168,19.5 L73.1948922,13.1735967 C74.7718975,12.3724879 75.8082152,10.463964 75.8082152,8.34338184 L75.8082152,8.31981982 C75.8082152,4.54989605 73.5328219,2.5 69.353758,2.5 L62.031948,2.5 L62.031948,19.5 Z M66.808021,10.3932779 L66.808021,6.18745669 L68.8018062,6.18745669 C70.0634104,6.18745669 70.9420276,7.04747055 70.9420276,8.28447678 L70.9420276,8.30803881 C70.9420276,9.55682606 70.085939,10.3932779 68.8018062,10.3932779 L66.808021,10.3932779 Z M48.334531,19.5 L59.801612,19.5 L59.801612,15.54158 L53.110604,15.54158 L53.110604,12.8437283 L59.384832,12.8437283 L59.384832,9.16805267 L53.110604,9.16805267 L53.110604,6.45841996 L59.801612,6.45841996 L59.801612,2.5 L48.334531,2.5 L48.334531,19.5 Z M33.172752,19.5 L37.948825,19.5 L37.948825,14.8582814 L40.4382404,14.8582814 C44.2455817,14.8582814 46.6448825,12.490298 46.6448825,8.72037422 L46.6448825,8.6968122 C46.6448825,4.92688843 44.2455817,2.5 40.4382404,2.5 L33.172752,2.5 L33.172752,19.5 Z M39.3005438,6.25814276 C40.877549,6.25814276 41.8237522,7.07103257 41.8237522,8.6968122 L41.8237522,8.72037422 C41.8237522,10.3461538 40.877549,11.1708247 39.3005438,11.1708247 L37.948825,11.1708247 L37.948825,6.25814276 L39.3005438,6.25814276 Z M15.5328219,19.5 L20.5792387,19.5 L23.3615265,14.3752599 L23.4516411,14.3752599 L26.2564576,19.5 L31.5732181,19.5 L26.5605943,11.0058905 L26.5605943,10.9116424 L31.5957467,2.5 L26.3015149,2.5 L23.7332492,7.91926542 L23.6431346,7.91926542 L21.0861332,2.5 L15.5215576,2.5 L20.3201593,10.8880804 L20.3201593,10.9823285 L15.5328219,19.5 Z M2.5,19.5 L13.967081,19.5 L13.967081,15.54158 L7.27607302,15.54158 L7.27607302,12.8437283 L13.550301,12.8437283 L13.550301,9.16805267 L7.27607302,9.16805267 L7.27607302,6.45841996 L13.967081,6.45841996 L13.967081,2.5 L2.5,2.5 L2.5,19.5 Z"></path>
</svg>